{
	"asset":{
		"generator":"Khronos glTF Blender I/O v4.3.47",
		"version":"2.0"
	},
	"extensionsUsed":[
		"KHR_materials_specular"
	],
	"scene":0,
	"scenes":[
		{
			"name":"Scene",
			"nodes":[
				0,
				1,
				2,
				3,
				4,
				5,
				6
			]
		}
	],
	"nodes":[
		{
			"mesh":0,
			"name":"j20_Wing",
			"rotation":[
				0.7071068286895752,
				0,
				0,
				0.7071068286895752
			],
			"scale":[
				0.009999999776482582,
				0.009999999776482582,
				0.009999999776482582
			]
		},
		{
			"mesh":1,
			"name":"j20_A",
			"rotation":[
				0.7071068286895752,
				0,
				0,
				0.7071068286895752
			],
			"scale":[
				0.009999999776482582,
				0.009999999776482582,
				0.009999999776482582
			]
		},
		{
			"mesh":2,
			"name":"j20_Cabin_U",
			"rotation":[
				0.7071068286895752,
				0,
				0,
				0.7071068286895752
			],
			"scale":[
				0.009999999776482582,
				0.009999999776482582,
				0.009999999776482582
			]
		},
		{
			"mesh":3,
			"name":"j20_Seat",
			"rotation":[
				0.7071068286895752,
				0,
				0,
				0.7071068286895752
			],
			"scale":[
				0.009999999776482582,
				0.009999999776482582,
				0.009999999776482582
			]
		},
		{
			"mesh":4,
			"name":"j20_Console",
			"rotation":[
				0.7071068286895752,
				0,
				0,
				0.7071068286895752
			],
			"scale":[
				0.009999999776482582,
				0.009999999776482582,
				0.009999999776482582
			]
		},
		{
			"mesh":5,
			"name":"j20_Side",
			"rotation":[
				0.7071068286895752,
				0,
				0,
				0.7071068286895752
			],
			"scale":[
				0.009999999776482582,
				0.009999999776482582,
				0.009999999776482582
			]
		},
		{
			"mesh":6,
			"name":"j20_Body",
			"rotation":[
				0.7071068286895752,
				0,
				0,
				0.7071068286895752
			],
			"scale":[
				0.009999999776482582,
				0.009999999776482582,
				0.009999999776482582
			]
		}
	],
	"materials":[
		{
			"doubleSided":true,
			"extensions":{
				"KHR_materials_specular":{
					"specularColorFactor":[
						2.0,
						2.0,
						2.0
					]
				}
			},
			"name":"j20_Wing",
			"pbrMetallicRoughness":{
				"baseColorFactor":[
					0.6038273572921753,
					0.6038273572921753,
					0.6038273572921753,
					1
				],
				"metallicFactor":0,
				"roughnessFactor":0.4343145787715912
			}
		},
		{
			"doubleSided":true,
			"extensions":{
				"KHR_materials_specular":{
					"specularColorFactor":[
						2.0,
						2.0,
						2.0
					]
				}
			},
			"name":"j20_A",
			"pbrMetallicRoughness":{
				"baseColorFactor":[
					0.6038273572921753,
					0.6038273572921753,
					0.6038273572921753,
					1
				],
				"metallicFactor":0,
				"roughnessFactor":0.4343145787715912
			}
		},
		{
			"doubleSided":true,
			"extensions":{
				"KHR_materials_specular":{
					"specularColorFactor":[
						2.0,
						2.0,
						2.0
					]
				}
			},
			"name":"j20_Cabin_U",
			"pbrMetallicRoughness":{
				"baseColorFactor":[
					0.6038273572921753,
					0.6038273572921753,
					0.6038273572921753,
					1
				],
				"metallicFactor":0,
				"roughnessFactor":0.4343145787715912
			}
		},
		{
			"doubleSided":true,
			"extensions":{
				"KHR_materials_specular":{
					"specularColorFactor":[
						2.0,
						2.0,
						2.0
					]
				}
			},
			"name":"j20_Seat",
			"pbrMetallicRoughness":{
				"baseColorFactor":[
					0.6038273572921753,
					0.6038273572921753,
					0.6038273572921753,
					1
				],
				"metallicFactor":0,
				"roughnessFactor":0.4343145787715912
			}
		},
		{
			"doubleSided":true,
			"extensions":{
				"KHR_materials_specular":{
					"specularColorFactor":[
						2.0,
						2.0,
						2.0
					]
				}
			},
			"name":"j20_Console",
			"pbrMetallicRoughness":{
				"baseColorFactor":[
					0.6038273572921753,
					0.6038273572921753,
					0.6038273572921753,
					1
				],
				"metallicFactor":0,
				"roughnessFactor":0.4343145787715912
			}
		},
		{
			"doubleSided":true,
			"extensions":{
				"KHR_materials_specular":{
					"specularColorFactor":[
						2.0,
						2.0,
						2.0
					]
				}
			},
			"name":"j20_Side",
			"pbrMetallicRoughness":{
				"baseColorFactor":[
					0.6038273572921753,
					0.6038273572921753,
					0.6038273572921753,
					1
				],
				"metallicFactor":0,
				"roughnessFactor":0.4343145787715912
			}
		},
		{
			"doubleSided":true,
			"extensions":{
				"KHR_materials_specular":{
					"specularColorFactor":[
						2.0,
						2.0,
						2.0
					]
				}
			},
			"name":"j20_Body_1001",
			"pbrMetallicRoughness":{
				"baseColorFactor":[
					0.06743726879358292,
					0.6038273572921753,
					0.15071594715118408,
					1
				],
				"metallicFactor":0,
				"roughnessFactor":0.4343145787715912
			}
		},
		{
			"doubleSided":true,
			"extensions":{
				"KHR_materials_specular":{
					"specularColorFactor":[
						2.0,
						2.0,
						2.0
					]
				}
			},
			"name":"j20_Body_1002",
			"pbrMetallicRoughness":{
				"baseColorFactor":[
					0.6038273572921753,
					0.08518403768539429,
					0.03831072896718979,
					1
				],
				"metallicFactor":0,
				"roughnessFactor":0.4343145787715912
			}
		}
	],
	"meshes":[
		{
			"name":"\u7f51\u683c",
			"primitives":[
				{
					"attributes":{
						"POSITION":0,
						"NORMAL":1,
						"TEXCOORD_0":2,
						"TEXCOORD_1":3
					},
					"indices":4,
					"material":0
				}
			]
		},
		{
			"name":"\u7f51\u683c.001",
			"primitives":[
				{
					"attributes":{
						"POSITION":5,
						"NORMAL":6,
						"TEXCOORD_0":7
					},
					"indices":8,
					"material":1
				}
			]
		},
		{
			"name":"\u7f51\u683c.002",
			"primitives":[
				{
					"attributes":{
						"POSITION":9,
						"NORMAL":10,
						"TEXCOORD_0":11
					},
					"indices":12,
					"material":2
				}
			]
		},
		{
			"name":"\u7f51\u683c.003",
			"primitives":[
				{
					"attributes":{
						"POSITION":13,
						"NORMAL":14,
						"TEXCOORD_0":15
					},
					"indices":16,
					"material":3
				}
			]
		},
		{
			"name":"\u7f51\u683c.004",
			"primitives":[
				{
					"attributes":{
						"POSITION":17,
						"NORMAL":18,
						"TEXCOORD_0":19
					},
					"indices":20,
					"material":4
				}
			]
		},
		{
			"name":"\u7f51\u683c.005",
			"primitives":[
				{
					"attributes":{
						"POSITION":21,
						"NORMAL":22,
						"TEXCOORD_0":23
					},
					"indices":24,
					"material":5
				}
			]
		},
		{
			"name":"\u7f51\u683c.006",
			"primitives":[
				{
					"attributes":{
						"POSITION":25,
						"NORMAL":26,
						"TEXCOORD_0":27
					},
					"indices":28,
					"material":6
				},
				{
					"attributes":{
						"POSITION":29,
						"NORMAL":30,
						"TEXCOORD_0":31
					},
					"indices":32,
					"material":7
				}
			]
		}
	],
	"accessors":[
		{
			"bufferView":0,
			"componentType":5126,
			"count":9684,
			"max":[
				950.3629760742188,
				680.802490234375,
				26.914209365844727
			],
			"min":[
				-950.363525390625,
				-1367.112060546875,
				-359.42401123046875
			],
			"type":"VEC3"
		},
		{
			"bufferView":1,
			"componentType":5126,
			"count":9684,
			"type":"VEC3"
		},
		{
			"bufferView":2,
			"componentType":5126,
			"count":9684,
			"type":"VEC2"
		},
		{
			"bufferView":3,
			"componentType":5126,
			"count":9684,
			"type":"VEC2"
		},
		{
			"bufferView":4,
			"componentType":5123,
			"count":49032,
			"type":"SCALAR"
		},
		{
			"bufferView":5,
			"componentType":5126,
			"count":18249,
			"max":[
				868.2789916992188,
				1353.5699462890625,
				166.66604614257812
			],
			"min":[
				-868.2785034179688,
				-1182.1014404296875,
				-307.5719909667969
			],
			"type":"VEC3"
		},
		{
			"bufferView":6,
			"componentType":5126,
			"count":18249,
			"type":"VEC3"
		},
		{
			"bufferView":7,
			"componentType":5126,
			"count":18249,
			"type":"VEC2"
		},
		{
			"bufferView":8,
			"componentType":5123,
			"count":88788,
			"type":"SCALAR"
		},
		{
			"bufferView":9,
			"componentType":5126,
			"count":20924,
			"max":[
				96.04759979248047,
				1238.0069580078125,
				-88.44760131835938
			],
			"min":[
				-96.04759979248047,
				722.6314697265625,
				-204.63095092773438
			],
			"type":"VEC3"
		},
		{
			"bufferView":10,
			"componentType":5126,
			"count":20924,
			"type":"VEC3"
		},
		{
			"bufferView":11,
			"componentType":5126,
			"count":20924,
			"type":"VEC2"
		},
		{
			"bufferView":12,
			"componentType":5123,
			"count":91824,
			"type":"SCALAR"
		},
		{
			"bufferView":13,
			"componentType":5126,
			"count":41079,
			"max":[
				40.958580017089844,
				1040.4019775390625,
				23.578174591064453
			],
			"min":[
				-40.958580017089844,
				795.9169921875,
				-181.3186492919922
			],
			"type":"VEC3"
		},
		{
			"bufferView":14,
			"componentType":5126,
			"count":41079,
			"type":"VEC3"
		},
		{
			"bufferView":15,
			"componentType":5126,
			"count":41079,
			"type":"VEC2"
		},
		{
			"bufferView":16,
			"componentType":5123,
			"count":197364,
			"type":"SCALAR"
		},
		{
			"bufferView":17,
			"componentType":5126,
			"count":28738,
			"max":[
				77.7134017944336,
				1174.6925048828125,
				25.981870651245117
			],
			"min":[
				-77.7134017944336,
				990.9739990234375,
				-168.15040588378906
			],
			"type":"VEC3"
		},
		{
			"bufferView":18,
			"componentType":5126,
			"count":28738,
			"type":"VEC3"
		},
		{
			"bufferView":19,
			"componentType":5126,
			"count":28738,
			"type":"VEC2"
		},
		{
			"bufferView":20,
			"componentType":5123,
			"count":134652,
			"type":"SCALAR"
		},
		{
			"bufferView":21,
			"componentType":5126,
			"count":13746,
			"max":[
				315.29998779296875,
				915.7994995117188,
				152.93080139160156
			],
			"min":[
				-315.29998779296875,
				-368.9718017578125,
				-39.22495651245117
			],
			"type":"VEC3"
		},
		{
			"bufferView":22,
			"componentType":5126,
			"count":13746,
			"type":"VEC3"
		},
		{
			"bufferView":23,
			"componentType":5126,
			"count":13746,
			"type":"VEC2"
		},
		{
			"bufferView":24,
			"componentType":5123,
			"count":66528,
			"type":"SCALAR"
		},
		{
			"bufferView":25,
			"componentType":5126,
			"count":8999,
			"max":[
				905.1845092773438,
				807.1599731445312,
				152.97889709472656
			],
			"min":[
				-905.1845092773438,
				-1331.48095703125,
				-115.20050048828125
			],
			"type":"VEC3"
		},
		{
			"bufferView":26,
			"componentType":5126,
			"count":8999,
			"type":"VEC3"
		},
		{
			"bufferView":27,
			"componentType":5126,
			"count":8999,
			"type":"VEC2"
		},
		{
			"bufferView":28,
			"componentType":5123,
			"count":47928,
			"type":"SCALAR"
		},
		{
			"bufferView":29,
			"componentType":5126,
			"count":13978,
			"max":[
				905.6309814453125,
				1608.7884521484375,
				152.80654907226562
			],
			"min":[
				-905.6309814453125,
				-1331.48095703125,
				-154.9403076171875
			],
			"type":"VEC3"
		},
		{
			"bufferView":30,
			"componentType":5126,
			"count":13978,
			"type":"VEC3"
		},
		{
			"bufferView":31,
			"componentType":5126,
			"count":13978,
			"type":"VEC2"
		},
		{
			"bufferView":32,
			"componentType":5123,
			"count":70536,
			"type":"SCALAR"
		}
	],
	"bufferViews":[
		{
			"buffer":0,
			"byteLength":116208,
			"byteOffset":0,
			"target":34962
		},
		{
			"buffer":0,
			"byteLength":116208,
			"byteOffset":116208,
			"target":34962
		},
		{
			"buffer":0,
			"byteLength":77472,
			"byteOffset":232416,
			"target":34962
		},
		{
			"buffer":0,
			"byteLength":77472,
			"byteOffset":309888,
			"target":34962
		},
		{
			"buffer":0,
			"byteLength":98064,
			"byteOffset":387360,
			"target":34963
		},
		{
			"buffer":0,
			"byteLength":218988,
			"byteOffset":485424,
			"target":34962
		},
		{
			"buffer":0,
			"byteLength":218988,
			"byteOffset":704412,
			"target":34962
		},
		{
			"buffer":0,
			"byteLength":145992,
			"byteOffset":923400,
			"target":34962
		},
		{
			"buffer":0,
			"byteLength":177576,
			"byteOffset":1069392,
			"target":34963
		},
		{
			"buffer":0,
			"byteLength":251088,
			"byteOffset":1246968,
			"target":34962
		},
		{
			"buffer":0,
			"byteLength":251088,
			"byteOffset":1498056,
			"target":34962
		},
		{
			"buffer":0,
			"byteLength":167392,
			"byteOffset":1749144,
			"target":34962
		},
		{
			"buffer":0,
			"byteLength":183648,
			"byteOffset":1916536,
			"target":34963
		},
		{
			"buffer":0,
			"byteLength":492948,
			"byteOffset":2100184,
			"target":34962
		},
		{
			"buffer":0,
			"byteLength":492948,
			"byteOffset":2593132,
			"target":34962
		},
		{
			"buffer":0,
			"byteLength":328632,
			"byteOffset":3086080,
			"target":34962
		},
		{
			"buffer":0,
			"byteLength":394728,
			"byteOffset":3414712,
			"target":34963
		},
		{
			"buffer":0,
			"byteLength":344856,
			"byteOffset":3809440,
			"target":34962
		},
		{
			"buffer":0,
			"byteLength":344856,
			"byteOffset":4154296,
			"target":34962
		},
		{
			"buffer":0,
			"byteLength":229904,
			"byteOffset":4499152,
			"target":34962
		},
		{
			"buffer":0,
			"byteLength":269304,
			"byteOffset":4729056,
			"target":34963
		},
		{
			"buffer":0,
			"byteLength":164952,
			"byteOffset":4998360,
			"target":34962
		},
		{
			"buffer":0,
			"byteLength":164952,
			"byteOffset":5163312,
			"target":34962
		},
		{
			"buffer":0,
			"byteLength":109968,
			"byteOffset":5328264,
			"target":34962
		},
		{
			"buffer":0,
			"byteLength":133056,
			"byteOffset":5438232,
			"target":34963
		},
		{
			"buffer":0,
			"byteLength":107988,
			"byteOffset":5571288,
			"target":34962
		},
		{
			"buffer":0,
			"byteLength":107988,
			"byteOffset":5679276,
			"target":34962
		},
		{
			"buffer":0,
			"byteLength":71992,
			"byteOffset":5787264,
			"target":34962
		},
		{
			"buffer":0,
			"byteLength":95856,
			"byteOffset":5859256,
			"target":34963
		},
		{
			"buffer":0,
			"byteLength":167736,
			"byteOffset":5955112,
			"target":34962
		},
		{
			"buffer":0,
			"byteLength":167736,
			"byteOffset":6122848,
			"target":34962
		},
		{
			"buffer":0,
			"byteLength":111824,
			"byteOffset":6290584,
			"target":34962
		},
		{
			"buffer":0,
			"byteLength":141072,
			"byteOffset":6402408,
			"target":34963
		}
	],
	"buffers":[
		{
			"byteLength":6543480,
			"uri":"%E6%97%A0%E6%A0%87%E9%A2%98.bin"
		}
	]
}
